<?xml version="1.0" standalone="no"?>
<!DOCTYPE svg PUBLIC "-//W3C//DTD SVG 20010904//EN"
 "http://www.w3.org/TR/2001/REC-SVG-20010904/DTD/svg10.dtd">
<svg version="1.0" xmlns="http://www.w3.org/2000/svg"
 width="940.000000pt" height="940.000000pt" viewBox="0 0 940.000000 940.000000"
 preserveAspectRatio="xMidYMid meet">
<metadata>
Created by potrace 1.14, written by Peter Selinger 2001-2017
</metadata>
<g transform="translate(0.000000,940.000000) scale(0.100000,-0.100000)"
fill="#000000" stroke="none">
<path d="M0 4700 l0 -4700 4700 0 4700 0 0 4700 0 4700 -4700 0 -4700 0 0
-4700z m5950 4556 c0 -3 -4 -8 -10 -11 -5 -3 -10 -1 -10 4 0 6 5 11 10 11 6 0
10 -2 10 -4z m-596 -412 c3 -8 2 -12 -4 -9 -6 3 -10 10 -10 16 0 14 7 11 14
-7z m-610 -619 c-7 -38 -1 -43 22 -20 26 25 42 17 60 -32 10 -27 21 -53 26
-60 11 -14 4 -18 -45 -27 l-38 -7 32 -28 c31 -27 33 -51 4 -51 -7 0 -26 -13
-42 -30 -34 -37 -39 -37 -55 -3 -18 37 -33 39 -48 4 l-12 -30 -42 28 c-22 15
-50 31 -60 35 -18 6 -18 8 7 34 32 33 34 42 8 42 -39 0 -51 10 -40 37 5 13 9
36 9 51 0 47 13 56 48 38 42 -22 44 -21 36 19 l-6 35 71 0 72 0 -7 -35z m105
-350 c12 -25 21 -53 21 -63 0 -10 4 -22 8 -27 5 -6 15 -26 22 -45 7 -19 26
-63 41 -98 16 -35 32 -75 35 -90 4 -15 21 -58 39 -97 17 -38 42 -96 55 -127
13 -32 30 -58 38 -58 8 0 11 -7 8 -17 -3 -10 5 -42 18 -72 l24 -55 12 50 c6
27 14 61 17 76 3 15 9 26 13 23 5 -3 16 2 24 11 21 21 84 26 118 10 20 -10 29
-11 38 -2 6 6 10 7 9 1 -2 -5 7 -29 19 -52 27 -53 28 -97 2 -146 l-21 -38 21
11 c12 6 24 18 27 26 3 7 9 11 14 8 5 -3 9 -1 9 5 0 6 6 8 13 6 6 -3 51 21 99
53 48 31 106 68 129 82 23 14 48 31 56 39 8 8 36 26 62 40 26 14 75 44 109 66
33 22 88 58 123 80 34 22 72 47 85 54 21 14 26 12 89 -37 37 -29 71 -52 76
-52 5 0 17 -7 26 -14 10 -8 28 -23 41 -33 l23 -18 -35 -145 c-20 -79 -36 -156
-36 -170 -1 -14 -18 -92 -39 -173 l-38 -148 37 -32 c30 -26 47 -58 92 -172 31
-77 58 -151 61 -165 4 -22 79 -207 107 -265 5 -11 10 -31 12 -45 3 -22 8 -25
53 -28 45 -3 52 -6 68 -35 18 -30 18 -33 2 -42 -48 -29 -48 -28 -29 -70 9 -22
22 -51 28 -65 5 -14 30 -59 53 -101 24 -42 43 -86 43 -98 0 -13 -25 -67 -55
-121 -30 -54 -55 -104 -55 -111 0 -8 -9 -29 -20 -47 -11 -18 -20 -36 -20 -40
0 -8 104 -62 119 -62 5 0 14 14 20 31 11 33 23 33 86 1 41 -20 145 -101 145
-112 0 -5 14 -31 30 -58 34 -54 60 -137 60 -194 l0 -38 325 0 325 0 0 -80 0
-80 -137 0 c-76 -1 -235 0 -354 0 l-216 1 -17 -27 c-10 -14 -15 -29 -11 -32 3
-3 155 -6 338 -7 l332 0 3 -317 2 -318 -33 0 -34 0 -13 -72 c-7 -40 -15 -78
-17 -85 -2 -6 9 -14 27 -18 38 -8 46 -26 28 -62 -84 -166 -95 -181 -177 -263
-67 -66 -106 -95 -176 -131 -132 -69 -178 -79 -347 -79 -173 0 -201 8 -398
110 -47 24 -170 144 -205 200 -50 79 -107 201 -101 216 3 7 13 14 23 14 35 0
45 15 36 50 l-9 34 -24 -39 c-14 -22 -33 -53 -44 -70 -41 -67 -244 -266 -296
-289 -14 -6 -27 -13 -30 -17 -11 -13 -165 -99 -178 -99 -8 0 -28 -6 -45 -14
-50 -23 -196 -64 -267 -76 -40 -6 -317 -10 -715 -10 -528 0 -665 3 -730 15
-172 31 -342 94 -436 161 -25 19 -51 34 -58 34 -6 0 -19 8 -29 18 -10 9 -38
33 -63 53 -61 50 -148 141 -208 219 -59 77 -168 291 -181 358 -5 26 -16 74
-24 107 -9 33 -15 72 -16 87 0 28 4 27 -157 44 l-62 6 16 24 c9 15 22 23 30
19 58 -22 59 -21 88 57 15 40 50 114 78 163 53 97 61 137 33 180 -27 41 -93
169 -101 195 -11 38 -49 120 -55 120 -4 0 -27 -13 -53 -30 -26 -17 -52 -30
-58 -30 -6 0 -9 -3 -7 -7 67 -136 123 -246 140 -274 l22 -37 -33 -58 c-17 -33
-50 -96 -71 -141 -42 -88 -45 -90 -109 -73 -20 5 -48 12 -63 15 -15 3 -55 28
-90 56 -79 63 -132 148 -153 244 -14 64 -15 78 -1 143 8 39 27 92 43 117 15
26 34 56 40 69 21 38 173 136 212 136 5 0 14 -13 20 -30 5 -16 12 -30 15 -30
3 0 31 11 62 25 44 19 55 29 51 42 -18 57 -41 108 -82 182 -72 129 -71 125
-33 200 18 37 35 68 38 71 11 11 31 53 51 106 22 57 16 84 -18 84 -22 0 -26
26 -8 54 16 23 24 26 80 26 l62 0 46 108 c25 59 53 132 63 162 9 30 40 109 67
175 l50 120 -2 125 c-1 69 -8 186 -16 260 -8 74 -19 176 -25 225 -5 50 -12
122 -15 160 -4 39 -9 77 -11 86 -3 11 17 28 66 57 38 23 74 42 79 42 6 0 32
13 59 29 l50 29 36 -34 c20 -19 40 -34 44 -34 5 0 31 -22 58 -50 27 -27 54
-50 59 -50 6 0 26 -16 45 -35 19 -20 53 -49 76 -65 22 -16 56 -44 75 -62 19
-18 72 -62 117 -98 46 -36 98 -77 116 -92 19 -16 38 -28 42 -28 5 0 9 33 9 74
0 64 3 78 23 99 12 13 30 25 40 26 47 7 106 0 122 -14 10 -9 24 -15 31 -13 8
2 13 -4 13 -14 -1 -10 1 -18 5 -18 7 0 11 -15 12 -52 0 -10 4 -18 9 -18 13 0
19 27 8 38 -8 8 -8 15 1 26 11 13 10 18 -3 31 -9 9 -16 20 -16 25 0 13 35 30
59 30 22 0 61 52 61 81 0 9 16 52 36 95 19 43 44 98 55 121 10 24 19 50 19 58
0 8 4 23 10 33 26 47 92 199 97 224 l6 28 147 0 148 0 21 -45z m-1789 -27 l12
-42 15 32 c9 18 21 32 28 32 7 0 32 -21 54 -46 l41 -47 -27 -23 -27 -23 30
-12 c16 -7 31 -14 33 -16 2 -2 -3 -18 -11 -35 -9 -18 -22 -45 -29 -61 -12 -25
-14 -26 -33 -12 -55 39 -56 39 -56 -6 l0 -41 -57 7 c-32 4 -61 9 -64 11 -4 2
-3 21 1 43 7 39 6 39 -17 30 -43 -16 -49 -11 -61 53 -6 34 -9 64 -6 67 2 3 23
4 46 2 l41 -2 -27 32 -28 32 59 34 c32 18 61 33 65 33 4 0 12 -19 18 -42z
m3410 -102 c30 -16 57 -30 59 -32 3 -2 -8 -18 -24 -34 l-29 -30 43 0 c35 0 42
-3 37 -16 -3 -9 -6 -38 -6 -66 0 -50 0 -50 -27 -45 -16 3 -36 9 -45 12 -17 7
-17 4 -3 -34 7 -22 10 -43 5 -46 -4 -3 -35 -8 -69 -11 l-60 -7 -3 44 -3 44
-27 -30 c-15 -16 -29 -27 -31 -25 -14 18 -67 112 -67 119 0 5 13 12 30 16 42
9 45 20 11 42 l-30 18 49 52 50 51 22 -36 22 -36 13 30 c6 16 12 35 13 42 0 8
3 12 8 10 4 -2 32 -16 62 -32z m760 -706 l0 -160 -45 0 -45 0 0 160 0 160 45
0 45 0 0 -160z m-177 -194 c3 -8 4 -22 2 -32 -2 -11 -4 -22 -4 -26 -1 -5 -35
-8 -76 -8 l-75 0 0 40 0 40 74 0 c54 0 75 -4 79 -14z m425 -28 l3 -38 -75 0
-76 0 0 40 0 41 73 -3 72 -3 3 -37z m-6908 -68 c0 -5 -5 -10 -11 -10 -5 0 -7
5 -4 10 3 6 8 10 11 10 2 0 4 -4 4 -10z m6660 -165 l0 -155 -45 0 -45 0 0 155
0 155 45 0 45 0 0 -155z m-5620 -1930 l0 -105 -35 0 -35 0 0 105 0 105 35 0
35 0 0 -105z m-132 -124 c6 -1 12 -10 12 -21 0 -17 -7 -20 -50 -20 -42 0 -50
3 -50 18 0 26 5 29 42 26 18 -1 39 -3 46 -3z m282 -21 c0 -17 -7 -20 -50 -20
-43 0 -50 3 -50 20 0 17 7 20 50 20 43 0 50 -3 50 -20z m6108 8 c5 -7 24 -47
42 -88 56 -127 52 -227 -12 -357 l-30 -63 -59 0 -58 0 24 48 c77 155 74 267
-11 434 -8 14 -14 29 -14 32 0 12 108 6 118 -6z m-7298 -8 c0 -5 -2 -10 -4
-10 -3 0 -8 5 -11 10 -3 6 -1 10 4 10 6 0 11 -4 11 -10z m1038 -152 l-3 -103
-30 0 -30 0 -3 103 -3 102 36 0 36 0 -3 -102z m522 -493 c0 -286 2 -345 14
-345 7 0 19 7 26 15 39 47 232 78 341 56 151 -31 298 -149 356 -284 52 -121
54 -116 -62 -143 -112 -26 -125 -28 -125 -15 0 5 -14 39 -30 75 -31 67 -35 70
-135 121 -77 38 -183 31 -250 -19 -16 -12 -37 -25 -46 -28 -8 -3 -30 -37 -48
-74 -58 -121 -38 -245 51 -332 39 -37 129 -72 188 -72 55 0 148 34 182 67 34
32 74 98 83 136 8 32 5 32 130 4 116 -27 114 -22 64 -142 -33 -79 -110 -169
-187 -220 -106 -70 -300 -91 -434 -48 -79 26 -128 55 -189 114 -63 60 -85 95
-122 192 l-32 82 -3 603 -3 602 116 0 115 0 0 -345z m424 263 c-19 -45 -34
-88 -34 -96 0 -8 -6 -28 -14 -45 -30 -66 -95 -233 -100 -259 l-6 -28 -110 0
c-61 0 -110 3 -110 8 0 4 14 41 31 82 62 150 79 194 79 210 0 9 8 32 18 52 11
20 29 63 42 97 l22 61 108 0 108 0 -34 -82z m331 65 c-4 -10 -18 -49 -30 -88
-12 -38 -43 -120 -69 -182 -25 -61 -46 -118 -46 -125 0 -7 -8 -32 -17 -55
l-18 -43 -102 0 c-95 0 -103 1 -103 19 0 11 5 23 10 26 6 3 10 17 10 30 0 14
11 48 24 77 13 29 27 64 31 78 4 14 11 30 15 35 4 6 21 51 38 100 16 50 35
102 41 118 l11 27 106 0 c97 0 106 -1 99 -17z m5025 -252 c-11 -16 -20 -33
-20 -37 0 -4 -12 -25 -26 -46 -20 -29 -33 -38 -55 -38 -35 0 -35 3 -4 68 39
82 30 100 -12 22 -40 -75 -54 -90 -85 -90 -20 0 -28 4 -25 13 3 6 17 40 32 74
l27 62 94 0 95 0 -21 -28z m-7340 -241 c0 -5 -5 -10 -11 -10 -5 0 -7 5 -4 10
3 6 8 10 11 10 2 0 4 -4 4 -10z m6090 -386 c0 -3 -17 -35 -37 -71 -63 -107
-66 -115 -85 -203 -19 -93 -22 -182 -8 -245 5 -22 13 -59 18 -82 9 -43 62
-152 93 -192 11 -13 19 -28 19 -32 0 -5 -42 -9 -94 -9 -92 0 -95 1 -113 28
-45 66 -105 203 -119 272 -27 127 -7 284 49 386 9 16 26 49 38 74 36 75 42 79
147 79 50 1 92 -2 92 -5z m948 -101 l3 -103 -181 0 -180 0 0 105 0 105 178 -2
177 -3 3 -102z m-716 1 c17 -5 18 -25 18 -275 l0 -269 -90 0 -90 0 0 269 c0
305 -9 276 90 279 30 1 62 -1 72 -4z m246 -273 l2 -271 -90 0 -90 0 0 268 c0
148 3 272 7 276 4 4 44 5 88 3 l80 -5 3 -271z m470 -38 l-3 -98 -177 -3 -178
-2 0 100 0 100 180 0 181 0 -3 -97z m-3661 -268 c-2 -363 -5 -344 50 -329 13
4 20 11 16 17 -3 5 -2 7 4 4 14 -9 75 31 67 45 -4 7 -3 8 5 4 6 -4 23 2 37 13
15 12 37 21 50 21 13 0 24 4 24 8 0 5 18 17 40 28 22 10 40 22 40 27 0 4 7 7
16 7 8 0 13 4 10 9 -3 4 14 14 37 22 45 14 70 33 59 43 -3 4 0 4 9 1 8 -3 24
2 35 12 11 10 26 19 34 21 8 2 23 10 32 19 15 13 20 12 51 -11 19 -14 39 -26
45 -26 7 0 12 -5 12 -11 0 -6 7 -8 16 -5 9 3 12 2 8 -5 -6 -10 120 -8 156 3
46 13 60 20 60 28 0 5 9 14 19 20 15 7 29 4 62 -14 24 -14 48 -22 53 -19 6 4
8 3 4 -2 -9 -9 34 -45 54 -45 8 0 33 -14 56 -31 24 -18 49 -28 58 -25 8 3 13
2 9 -3 -6 -11 49 -46 88 -55 15 -3 27 -11 27 -16 0 -6 7 -10 15 -10 8 0 15 -3
15 -8 0 -9 96 -67 128 -77 l23 -7 -3 341 -3 341 88 0 87 0 0 -975 0 -975 -935
0 -935 0 0 213 0 212 -139 -3 c-115 -3 -146 -1 -176 13 -63 31 -85 120 -85
350 0 146 1 152 25 185 31 41 38 46 93 55 47 8 51 14 22 40 -22 20 -27 64 -8
83 25 25 65 14 102 -30 20 -23 36 -47 36 -54 0 -17 18 -21 79 -16 l54 4 -6
449 -7 449 94 0 94 0 -1 -335z m826 272 l-6 -51 37 22 c44 26 56 27 56 6 0 -8
4 -13 8 -10 5 3 9 -16 11 -41 2 -51 -7 -63 -51 -63 -42 0 -42 -16 2 -34 47
-19 45 -29 -16 -75 l-46 -35 -18 24 c-10 14 -17 27 -15 30 2 3 -1 12 -6 20 -8
13 -10 13 -19 0 -6 -8 -8 -23 -6 -33 2 -9 1 -15 -4 -12 -4 3 -10 -2 -13 -9 -8
-21 -47 -15 -59 9 -6 11 -19 26 -30 33 -26 19 -23 29 20 51 24 13 31 21 20 22
-10 1 -22 3 -28 4 -5 1 -22 3 -36 4 -25 1 -26 3 -20 39 4 20 7 45 8 54 1 9 4
15 7 12 3 -2 10 4 16 16 10 19 11 19 37 -5 15 -14 30 -25 33 -25 9 0 5 59 -5
65 -5 3 -7 12 -4 20 6 16 41 22 96 17 l37 -4 -6 -51z m-812 30 c-10 -9 -11 -8
-5 6 3 10 9 15 12 12 3 -3 0 -11 -7 -18z m496 -80 c13 5 23 -116 10 -124 -13
-8 -431 -3 -440 6 -4 4 -7 32 -5 62 l3 54 195 5 c107 3 202 2 210 -1 8 -4 20
-4 27 -2z m938 -62 l0 -60 -225 0 -225 0 -3 49 c-5 82 -20 77 230 74 l223 -3
0 -60z m2213 -207 l-3 -103 -177 -3 -178 -2 0 105 0 105 180 0 181 0 -3 -102z
m-418 -72 c0 -61 -3 -75 -17 -78 -9 -2 -126 -2 -260 0 l-243 3 0 74 0 75 260
0 260 0 0 -74z m750 -102 l0 -105 -27 3 c-16 2 -28 9 -27 16 1 6 2 53 3 102 1
89 1 90 26 90 l25 0 0 -106z m-510 -129 l0 -85 -500 0 -500 0 0 85 0 85 500 0
500 0 0 -85z m393 -8 c8 -21 -5 -32 -33 -30 -14 0 -35 1 -47 2 -16 1 -23 7
-23 21 0 17 7 20 49 20 32 0 51 -5 54 -13z m287 -7 c0 -18 -7 -20 -55 -20 -48
0 -55 2 -55 20 0 18 7 20 55 20 48 0 55 -2 55 -20z m-170 -155 c0 -104 0 -105
-24 -105 -13 0 -26 4 -28 10 -1 5 -2 52 0 105 3 93 4 95 28 95 24 0 24 0 24
-105z"/>
<path d="M4640 7281 c-8 -6 -17 -8 -21 -5 -17 10 -59 -63 -59 -102 0 -42 28
-97 57 -112 28 -13 96 -13 114 0 23 19 58 75 39 63 -12 -7 -13 -6 -3 6 12 15
14 89 2 89 -4 0 -10 11 -13 24 -9 35 -81 58 -116 37z m84 -83 c22 -62 -29
-117 -79 -84 -20 13 -25 25 -25 56 0 45 18 61 65 56 21 -2 33 -10 39 -28z"/>
<path d="M5278 7208 c-26 -22 -29 -47 -8 -68 22 -22 29 -24 48 -12 23 15 23
54 0 74 -25 21 -21 21 -40 6z"/>
<path d="M4210 7180 c0 -5 5 -10 10 -10 6 0 10 5 10 10 0 6 -4 10 -10 10 -5 0
-10 -4 -10 -10z"/>
<path d="M4040 7170 c-17 -11 -21 -52 -6 -65 22 -20 46 -16 55 7 9 25 4 49
-13 60 -14 10 -18 10 -36 -2z"/>
<path d="M5180 7097 c0 -8 5 -28 12 -44 6 -15 10 -33 9 -40 -2 -14 28 -24 78
-28 29 -2 38 3 48 23 7 13 13 25 13 27 0 1 -20 -1 -45 -5 -24 -4 -42 -3 -40 1
3 4 -2 10 -11 13 -10 4 -13 2 -8 -7 4 -6 -4 -1 -17 12 -13 14 -24 31 -25 39
-3 21 -14 28 -14 9z"/>
<path d="M3425 7006 c-34 -15 -59 -51 -49 -68 4 -7 3 -8 -4 -4 -18 11 -15 -50
4 -89 9 -19 27 -41 41 -50 18 -12 23 -13 18 -4 -6 11 -5 12 6 2 20 -19 63 -16
93 8 34 27 48 53 52 101 4 34 -1 44 -35 78 -43 44 -73 50 -126 26z m91 -60 c7
-6 15 -25 18 -41 6 -26 2 -33 -21 -47 -36 -21 -80 -13 -89 16 -4 11 -12 25
-18 29 -8 6 -8 10 2 14 6 2 12 10 12 17 0 31 69 40 96 12z"/>
<path d="M4105 7003 c-22 -8 -53 -12 -70 -8 -28 5 -29 4 -13 -11 33 -33 138
-16 138 23 0 15 -3 15 -55 -4z"/>
<path d="M5797 6960 c-23 -21 -29 -35 -32 -82 -4 -49 -1 -61 18 -83 34 -39 98
-49 157 -25 20 8 29 18 26 27 -3 8 -2 11 4 8 9 -5 9 -2 10 66 1 50 -2 58 -25
84 -15 17 -34 24 -75 26 -48 4 -59 1 -83 -21z m113 -46 c24 -15 26 -21 20 -49
-11 -48 -18 -55 -53 -55 -58 0 -84 84 -34 108 30 15 35 14 67 -4z"/>
<path d="M3462 6417 c-44 -14 -78 -61 -65 -90 25 -57 70 -144 99 -194 l33 -54
-29 -52 c-31 -54 -112 -219 -123 -250 -5 -12 -1 -20 11 -24 9 -4 19 -10 22
-14 3 -4 22 -14 42 -22 l38 -16 22 51 c13 29 41 88 64 132 22 45 45 90 51 101
5 11 17 35 26 53 15 29 15 38 4 60 -8 15 -24 47 -36 72 -12 25 -37 74 -55 110
-19 36 -39 84 -45 108 -7 23 -15 42 -19 41 -4 -1 -22 -6 -40 -12z"/>
<path d="M3667 6405 c-33 -13 -62 -26 -65 -30 -4 -3 3 -24 16 -45 12 -21 22
-45 22 -53 0 -15 12 -38 69 -137 l38 -65 -28 -50 c-36 -61 -130 -257 -127
-261 10 -9 103 -54 113 -54 6 0 19 19 29 43 16 40 112 241 143 300 11 21 12
31 4 41 -19 22 -131 250 -131 266 -1 8 -6 27 -13 42 l-12 27 -58 -24z"/>
<path d="M3865 6410 c-22 -11 -44 -21 -49 -23 -5 -1 3 -25 18 -52 14 -28 26
-57 26 -65 0 -8 23 -52 50 -98 28 -46 50 -89 50 -96 0 -7 -15 -37 -32 -67 -37
-61 -123 -248 -117 -253 13 -11 97 -56 105 -56 9 0 54 78 54 94 0 12 90 189
100 196 3 3 12 26 19 51 l13 46 -58 109 c-32 60 -67 136 -78 169 -24 69 -38
75 -101 45z"/>
<path d="M4425 6409 c-27 -11 -54 -25 -59 -30 -6 -6 3 -34 24 -76 19 -38 45
-90 59 -118 13 -27 33 -62 43 -78 19 -27 19 -27 -6 -70 -14 -23 -35 -62 -46
-87 -11 -25 -32 -66 -45 -91 -51 -95 -51 -93 16 -128 68 -36 69 -36 69 -16 0
8 11 31 25 51 14 20 25 45 25 55 0 11 23 61 51 111 79 141 78 131 6 272 -34
66 -70 145 -80 174 -10 28 -21 52 -25 51 -4 0 -29 -9 -57 -20z"/>
<path d="M4690 6422 c-20 -6 -104 -43 -109 -48 -3 -3 9 -32 26 -67 18 -34 46
-91 64 -127 17 -36 38 -73 47 -82 13 -15 10 -25 -32 -96 -25 -43 -46 -83 -46
-89 0 -6 -16 -41 -35 -78 l-36 -68 42 -24 c67 -38 87 -40 95 -9 3 14 10 26 14
26 5 0 16 21 26 48 19 54 65 148 100 207 13 22 24 47 24 56 0 9 -25 59 -55
110 -30 51 -55 103 -55 114 0 12 -3 25 -7 29 -4 4 -16 28 -28 55 -14 33 -25
46 -35 43z"/>
<path d="M4866 6415 c-11 -8 -27 -15 -35 -15 -42 -1 -42 -15 -1 -101 52 -106
61 -124 90 -177 l24 -43 -43 -87 c-24 -48 -58 -117 -77 -153 -19 -37 -34 -71
-34 -76 0 -8 97 -64 111 -63 6 0 53 92 104 205 15 33 40 81 56 106 16 25 29
53 29 61 0 8 -23 53 -50 99 -28 46 -53 95 -56 109 -4 14 -19 53 -35 88 -31 65
-47 74 -83 47z"/>
<path d="M5485 6414 c-22 -8 -50 -19 -61 -25 -25 -13 -25 -14 50 -159 27 -52
55 -106 62 -121 15 -28 4 -88 -20 -112 -15 -15 -73 -124 -92 -172 -6 -16 -15
-38 -18 -47 -6 -13 5 -23 54 -48 l61 -31 15 38 c9 21 49 106 90 190 l74 152
-25 37 c-14 20 -25 44 -25 53 0 9 -6 25 -14 36 -30 43 -96 184 -96 204 0 24
-2 24 -55 5z"/>
<path d="M5710 6411 c-81 -29 -83 -31 -65 -80 8 -23 39 -89 70 -145 38 -71 53
-110 48 -122 -3 -11 -29 -62 -57 -114 -28 -52 -56 -108 -62 -125 -6 -16 -14
-37 -18 -46 -5 -12 8 -24 54 -48 l60 -32 16 38 c15 37 108 232 146 306 19 37
19 37 -1 63 -11 14 -23 38 -26 54 -4 17 -11 32 -15 35 -13 8 -92 173 -99 206
l-6 26 -45 -16z"/>
<path d="M5947 6360 c-16 -28 -34 -49 -40 -47 -7 2 -21 20 -31 40 -11 20 -23
37 -28 37 -13 0 -10 -12 12 -48 11 -18 20 -39 20 -46 0 -13 29 -75 40 -86 3
-3 13 -21 22 -40 9 -19 25 -47 35 -62 19 -30 23 -19 -60 -173 -36 -67 -81
-174 -76 -179 2 -2 25 -15 52 -31 48 -28 77 -28 77 0 0 8 4 23 10 33 23 43
139 282 145 301 5 15 -14 62 -63 164 -39 78 -74 152 -78 165 -8 21 -11 19 -37
-28z"/>
<path d="M2850 5955 c0 -10 -27 -72 -59 -139 -32 -66 -62 -131 -66 -143 -3
-13 -10 -23 -15 -23 -20 0 -18 -36 4 -79 64 -126 136 -279 141 -303 l7 -26 46
19 c80 34 83 39 66 87 -14 44 -60 131 -99 192 -39 60 -39 88 0 155 38 64 88
167 99 203 6 19 1 25 -36 41 -75 32 -88 34 -88 16z"/>
<path d="M3036 5874 c-25 -53 -46 -101 -46 -105 0 -5 -4 -9 -10 -9 -5 0 -10
-8 -10 -17 0 -9 -14 -40 -30 -70 l-30 -53 19 -37 c11 -21 25 -49 31 -63 6 -14
36 -74 66 -135 30 -60 54 -118 54 -127 0 -24 6 -23 68 13 51 29 53 32 46 62
-7 37 -22 67 -73 151 -20 34 -43 80 -50 103 -13 40 -13 45 18 105 18 35 47 90
66 123 18 33 36 72 40 86 6 25 3 28 -50 48 -30 12 -58 21 -60 21 -2 0 -24 -43
-49 -96z"/>
<path d="M6253 5949 c-34 -13 -53 -26 -53 -36 0 -20 61 -153 70 -153 3 0 21
-32 40 -71 27 -59 31 -75 22 -90 -7 -10 -12 -24 -12 -30 0 -6 -8 -23 -18 -37
-35 -50 -92 -164 -92 -182 0 -10 -4 -22 -10 -25 -19 -12 -10 -22 50 -54 55
-30 61 -31 66 -14 10 33 68 157 91 195 13 21 23 44 23 52 0 8 13 38 30 66 l30
51 -21 28 c-11 15 -26 43 -33 62 -19 51 -120 258 -126 258 -3 0 -29 -9 -57
-20z"/>
<path d="M6480 5950 c-73 -29 -73 -33 3 -182 37 -73 68 -144 67 -158 0 -14
-11 -42 -25 -62 -14 -20 -25 -40 -25 -43 0 -3 -12 -24 -27 -48 -24 -38 -63
-130 -63 -149 0 -5 27 -21 60 -37 57 -28 61 -28 70 -11 6 10 10 25 10 32 0 8
22 57 49 109 26 51 60 122 76 156 l27 62 -76 154 c-42 85 -76 164 -76 176 0
25 -10 25 -70 1z"/>
<path d="M4210 5330 c0 -5 4 -10 8 -10 5 0 30 -29 57 -65 47 -62 51 -65 92
-65 48 0 48 -3 0 93 l-29 57 -64 0 c-36 0 -64 -4 -64 -10z"/>
<path d="M5110 5308 c-11 -18 -20 -39 -20 -46 0 -7 -7 -26 -15 -42 l-16 -30
41 0 c34 0 47 6 71 32 16 18 29 37 29 42 0 6 14 25 32 43 l32 33 -67 0 c-65 0
-68 -1 -87 -32z"/>
<path d="M3970 5201 c-51 -11 -82 -30 -139 -84 -63 -60 -77 -85 -92 -171 -27
-159 48 -302 194 -366 102 -45 203 -34 304 31 101 66 162 189 150 304 -7 71
-36 134 -87 189 -67 73 -114 95 -212 100 -45 3 -99 2 -118 -3z m110 -70 c0
-73 115 -196 207 -221 24 -7 43 -18 43 -24 0 -7 -20 -17 -45 -24 -85 -23 -203
-153 -205 -225 0 -46 -31 -30 -51 27 -10 26 -30 66 -45 87 -32 47 -122 108
-169 116 -46 7 -45 29 1 38 20 3 58 22 85 41 27 19 53 34 59 34 5 0 10 4 10
10 0 5 12 26 26 47 14 21 30 57 37 80 8 30 16 43 29 43 13 0 18 -8 18 -29z"/>
<path d="M5335 5201 c-82 -14 -177 -99 -222 -198 -35 -76 -30 -184 11 -260 38
-69 94 -124 163 -158 120 -60 265 -32 365 70 70 71 90 117 96 216 4 77 2 91
-22 140 -30 64 -101 141 -155 169 -44 22 -170 33 -236 21z m101 -58 c3 -10 18
-46 35 -79 34 -71 86 -117 168 -150 58 -24 77 -44 42 -44 -34 0 -113 -45 -158
-89 -23 -24 -53 -69 -68 -106 -16 -36 -31 -65 -35 -65 -4 0 -17 26 -28 58 -13
33 -40 77 -64 103 -45 49 -125 99 -158 99 -37 0 -20 25 28 42 97 35 177 119
203 213 11 38 26 46 35 18z"/>
<path d="M3195 5154 c-16 -9 -42 -22 -57 -30 l-26 -14 83 -165 c73 -144 82
-167 69 -179 -8 -8 -43 -75 -78 -150 l-64 -134 48 -21 c27 -12 56 -21 64 -21
15 0 66 96 66 122 0 6 25 55 55 111 30 55 55 111 55 124 0 13 -10 40 -23 61
-24 38 -61 113 -118 240 -18 39 -35 72 -38 72 -3 0 -19 -7 -36 -16z"/>
<path d="M6210 5149 c0 -19 -22 -66 -142 -302 l-30 -57 31 -50 c17 -28 31 -54
31 -59 0 -15 82 -171 90 -171 5 0 8 30 7 68 -2 66 -2 67 26 70 30 4 32 9 14
34 -8 10 -31 18 -58 20 l-44 3 -3 83 -3 82 46 0 c51 0 52 1 114 126 49 98 51
103 51 112 0 8 -108 62 -124 62 -3 0 -6 -10 -6 -21z"/>
<path d="M6430 5159 c0 -6 -24 -60 -54 -118 -29 -59 -57 -122 -61 -139 l-7
-32 66 0 66 0 25 48 c14 26 38 70 54 97 45 75 42 89 -29 125 -33 17 -60 25
-60 19z"/>
<path d="M2955 5135 c-22 -14 -44 -26 -48 -28 -8 -2 84 -199 130 -275 l25 -44
-20 -28 c-19 -25 -132 -252 -132 -264 0 -3 20 -14 44 -25 84 -37 81 -38 105
26 12 32 50 111 83 176 l60 119 -61 119 c-33 65 -61 124 -61 130 0 26 -55 119
-70 119 -8 0 -33 -12 -55 -25z"/>
<path d="M6603 5053 c-28 -60 -58 -125 -67 -145 l-16 -38 68 0 68 0 29 56 c72
134 84 160 85 171 0 12 -88 63 -108 63 -4 0 -31 -48 -59 -107z"/>
<path d="M6318 4675 c4 -24 7 -25 78 -25 l74 0 -12 25 c-10 23 -16 25 -78 25
-66 0 -67 0 -62 -25z"/>
<path d="M6530 4694 c0 -3 5 -14 10 -25 9 -16 22 -19 75 -19 69 0 71 1 55 31
-9 16 -22 19 -75 19 -36 0 -65 -3 -65 -6z"/>
<path d="M4515 4650 c8 -16 15 -34 15 -40 0 -6 25 -63 55 -126 30 -64 55 -120
55 -125 0 -5 12 -33 27 -64 26 -52 29 -55 65 -55 l37 0 50 105 c28 57 51 109
51 115 0 5 23 55 50 111 28 56 50 103 50 105 0 2 -22 4 -48 4 l-49 0 -57 -127
c-31 -71 -56 -135 -56 -144 0 -8 -6 -23 -13 -33 -11 -16 -18 -6 -60 86 -26 56
-47 109 -47 117 0 8 -10 33 -22 57 -21 43 -23 44 -70 44 l-49 0 16 -30z"/>
<path d="M4657 2330 c-80 -24 -157 -83 -157 -120 0 -5 -4 -10 -9 -10 -21 0
-44 -102 -38 -168 6 -58 12 -72 50 -120 24 -31 50 -56 58 -58 8 -1 35 -7 61
-13 45 -10 190 -7 209 5 5 3 9 17 9 32 l0 28 -97 0 c-54 0 -111 2 -127 5 -67
14 -118 145 -82 214 9 17 16 36 16 43 0 6 5 12 12 12 6 0 9 3 5 6 -11 11 75
73 113 81 36 8 90 8 90 1 0 -4 3 -7 8 -6 22 7 72 -27 88 -60 17 -35 21 -122 8
-164 -7 -22 -29 -29 -49 -14 -15 11 -15 19 -5 76 6 36 13 73 16 82 5 18 7 18
-144 18 -80 0 -135 -156 -77 -220 22 -24 90 -27 119 -5 17 13 23 13 43 -1 38
-24 100 -21 126 7 12 13 22 26 23 29 0 3 8 22 17 44 17 39 23 117 10 130 -5 4
-8 11 -9 14 -3 22 -22 52 -56 84 -53 50 -153 71 -231 48z m89 -192 c10 -15 13
-68 4 -68 -4 0 -13 -11 -20 -25 -10 -19 -21 -25 -39 -23 -24 3 -26 7 -26 50
-1 26 3 44 7 42 4 -3 8 1 8 10 0 24 53 36 66 14z"/>
<path d="M4690 1663 c-53 -9 -90 -25 -84 -35 4 -7 2 -8 -4 -4 -12 7 -58 -18
-80 -44 -7 -8 -27 -43 -44 -78 -27 -56 -30 -71 -26 -133 2 -43 9 -73 17 -78 7
-5 13 -12 14 -17 1 -5 6 -8 10 -6 5 1 5 -2 2 -9 -8 -13 29 -51 41 -41 4 4 4 2
1 -4 -10 -18 12 -30 91 -49 50 -12 89 -15 124 -11 69 9 83 19 86 55 2 29 1 30
-24 21 -38 -15 -137 -12 -178 5 -20 8 -36 13 -36 10 0 -3 -13 9 -30 27 -16 17
-30 37 -30 45 0 8 -4 11 -10 8 -10 -6 -7 79 5 132 4 18 25 49 46 70 21 20 35
41 32 46 -3 6 -1 7 5 3 6 -4 25 0 42 9 17 9 39 15 48 13 9 -1 23 1 31 6 8 5
16 4 21 -4 4 -7 13 -9 20 -5 6 4 20 -1 30 -10 10 -9 23 -14 29 -10 7 3 8 0 5
-9 -3 -9 -2 -16 3 -16 17 0 30 -43 32 -107 3 -68 -12 -103 -40 -96 -24 7 -29
48 -13 110 19 72 19 72 -16 71 -18 -1 -27 -5 -23 -12 4 -6 0 -5 -9 1 -8 7 -18
10 -21 6 -4 -3 -13 0 -21 6 -17 14 -76 6 -76 -10 0 -5 -7 -9 -15 -9 -8 0 -14
-3 -12 -7 1 -5 -2 -8 -6 -8 -30 0 -45 -156 -19 -188 19 -22 60 -27 108 -12 24
7 46 10 49 7 8 -8 34 -13 79 -14 44 -1 73 26 101 91 24 54 18 160 -8 144 -5
-3 -7 -1 -3 5 10 16 -12 64 -26 56 -6 -4 -8 -3 -5 3 4 6 0 16 -8 23 -8 7 -15
10 -15 7 0 -4 -16 5 -36 18 -20 14 -49 25 -63 25 -14 0 -35 2 -46 4 -11 2 -31
2 -45 -1z m51 -198 c13 -9 15 -62 2 -74 -8 -7 -11 -22 -9 -34 3 -12 3 -17 1
-11 -3 6 -17 9 -32 6 -35 -7 -55 20 -42 55 5 14 6 29 3 35 -4 7 -2 8 4 4 11
-6 16 5 13 26 -1 7 46 1 60 -7z"/>
</g>
</svg>
